<svg width="40" height="40" fill="none" xmlns="http://www.w3.org/2000/svg"><path d="M31.25 11.875c0 1.034.841 1.875 1.875 1.875A1.877 1.877 0 0035 11.875 1.877 1.877 0 0033.125 10a1.877 1.877 0 00-1.875 1.875zm2.5 0a.625.625 0 11-1.25 0 .625.625 0 011.25 0z" fill="#28868A"/><path d="M39.375 21.288c0-2.6-.907-5.093-2.547-7.094a4.342 4.342 0 00.672-2.319c0-2.32-1.818-4.22-4.102-4.361l-.014-.014 3.125-3.125L32.5.366l-3.125 3.125-.625-.625-3.239 3.239A13.4 13.4 0 0014.684.625h-.618C6.654.625.625 6.655.625 14.066c0 3.59 1.398 6.966 3.937 9.505l2.604 2.603a5.37 5.37 0 011.56 3.324A1.871 1.871 0 007.5 31.25c0 .864.59 1.587 1.387 1.803-.086.216-.137.45-.137.697 0 .814.524 1.501 1.25 1.76v.74a3.129 3.129 0 003.125 3.125h2.5a3.129 3.129 0 003.125-3.125v-.74A1.873 1.873 0 0020 33.75c0-.247-.05-.481-.137-.697a1.872 1.872 0 001.387-1.803c0-.805-.512-1.487-1.226-1.753a5.361 5.361 0 011.492-3.247h4.475l2.026 2.026L25.327 35h14.048v-7.5h-1.88a11.257 11.257 0 001.88-6.212zM35.949 27.5h-4.516a12.478 12.478 0 002.942-8.076 12.54 12.54 0 00-.436-3.253 4.36 4.36 0 002.067-1.012 9.929 9.929 0 012.119 6.13 9.99 9.99 0 01-2.176 6.211zm-7.185-15.898l-1.889 1.89L23.384 10l5.366-5.366L31.816 7.7a4.383 4.383 0 00-3.052 3.902zm-6.264-.718l3.491 3.491-.991.991-3.491-3.491.991-.991zm6.45 2.3a4.385 4.385 0 003.704 3.04c.307 1.038.471 2.112.471 3.2a11.35 11.35 0 01-.43 3.076h-7.549a13.337 13.337 0 002.979-8.434v-.057l.826-.825zm7.3-1.309A3.129 3.129 0 0133.125 15 3.129 3.129 0 0130 11.875a3.129 3.129 0 013.125-3.125 3.129 3.129 0 013.125 3.125zM32.5 2.134l2.241 2.241L32.5 6.616l-2.241-2.241L32.5 2.134zm-7.886 4.868l-4.873 4.873L25 17.134l1.809-1.809a12.087 12.087 0 01-3.335 7.175h-5.349v.625c0 1.309.81 2.428 1.955 2.893a6.589 6.589 0 00-1.3 3.357h-.09a6.146 6.146 0 00-2.85-4.374 6.099 6.099 0 002.91-5.204v-2.095a6.098 6.098 0 00-2.909-5.202 6.098 6.098 0 002.909-5.203V2.575a12.159 12.159 0 015.864 4.427zM17.5 5.625h-6.25v-1.25h6.25v1.25zm0 1.25v.422c0 .282-.028.558-.074.828h-6.101a4.837 4.837 0 01-.075-.828v-.422h6.25zm-.475 2.5a4.842 4.842 0 01-2.65 2.449 4.836 4.836 0 01-2.65-2.449h5.3zm-2.65 3.801a4.836 4.836 0 012.65 2.449h-5.3a4.84 4.84 0 012.65-2.449zm-3.125 4.527c0-.282.028-.558.074-.828h6.101c.047.27.075.546.075.828v.422h-6.25v-.422zm6.25 1.672v.422c0 .282-.028.558-.074.828h-6.101a4.838 4.838 0 01-.075-.828v-.422h6.25zm-.475 2.5a4.842 4.842 0 01-2.65 2.449 4.836 4.836 0 01-2.65-2.449h5.3zm-2.65 3.801c.69.265 1.296.677 1.788 1.199h-3.575a4.825 4.825 0 011.787-1.199zm-2.641 2.449h5.283c.188.394.33.812.405 1.25h-6.094c.076-.438.217-.856.406-1.25zm2.95-26.25c.961 0 1.904.116 2.816.332v.918h-6.25v-.909a12.164 12.164 0 012.816-.341h.618zM5.446 22.687a12.113 12.113 0 01-3.571-8.62c0-5.296 3.399-9.8 8.125-11.48v4.71a6.098 6.098 0 002.909 5.202A6.1 6.1 0 0010 17.703v2.095A6.098 6.098 0 0012.91 25a6.146 6.146 0 00-2.85 4.374h-.09a6.606 6.606 0 00-1.92-4.084l-2.604-2.604zm10.179 15.438h-2.5a1.877 1.877 0 01-1.875-1.875v-.625h6.25v.625a1.877 1.877 0 01-1.875 1.875zm2.5-3.75h-7.5a.625.625 0 010-1.25h7.5a.625.625 0 010 1.25zm1.25-2.5h-10a.625.625 0 010-1.25h10a.625.625 0 010 1.25zM21.25 25c-.815 0-1.51-.523-1.768-1.25h12.79a11.314 11.314 0 01-2.464 3.684l-.067.066h-.732l-2.5-2.5H21.25zm16.875 8.75H27.173l2-5h8.952v5z" fill="#28868A"/><path d="M7.213 20.92a9.685 9.685 0 01-2.476-4.214l-1.204.338a10.943 10.943 0 002.796 4.76l2.39 2.388.883-.884-2.389-2.389zM4.38 14.356l-1.25.038c.013.445.053.89.118 1.324l1.236-.185a9.78 9.78 0 01-.105-1.177z" fill="#28868A"/></svg>