<svg width="54" height="54" fill="none" xmlns="http://www.w3.org/2000/svg"><g clip-path="url(#clip0)" fill="#01B1B3"><path d="M13.447 42.972H9.21c-.67 0-1.215.545-1.215 1.215v2.697a3.336 3.336 0 003.333 3.332 3.336 3.336 0 003.333-3.332v-2.697c0-.67-.545-1.215-1.214-1.215zm-.368 3.912a1.752 1.752 0 01-3.502 0v-2.33h3.502v2.33z"/><path d="M50.464 33.534c-.73-.71-1.837.421-1.102 1.135 1.981 1.922 3.085 4.487 3.108 7.222.048 5.62-4.658 10.344-10.286 10.286-5.527-.047-10.061-4.582-10.108-10.108-.048-5.618 4.656-10.345 10.286-10.287 1.627.014 3.182.405 4.621 1.162.902.473 1.644-.924.736-1.4a11.749 11.749 0 00-5.344-1.343c-3.875-.035-7.568 1.885-9.784 5.063a19.874 19.874 0 00-4.426-2.634 1.704 1.704 0 00-1.804.304c-.297.266-.924.724-2.017 1.088V28.97c6.359-1.706 11.048-7.437 11.048-14.226C35.392 6.613 28.669 0 20.407 0A15.05 15.05 0 0011.7 2.743c-.834.587.076 1.88.91 1.294a13.475 13.475 0 017.797-2.455c7.39 0 13.403 5.904 13.403 13.161 0 3.783-1.635 7.198-4.246 9.6 1.032-1.709 1.585-3.698 1.585-5.789 0-.394-.268-.749-.664-.816-3.904-.666-5.437-2.939-5.498-3.031a.791.791 0 00-.666-.365h-7.829a.8.8 0 00-.663.36c-.064.097-1.597 2.37-5.5 3.036-.395.067-.664.423-.664.816 0 2.11.573 4.12 1.642 5.843-2.645-2.406-4.303-5.843-4.303-9.654 0-3.044 1.083-6.013 3.05-8.358.655-.782-.558-1.799-1.213-1.017a14.621 14.621 0 00-3.42 9.375c0 6.789 4.69 12.52 11.048 14.225V34c-1.109-.375-1.75-.843-2.056-1.116a1.645 1.645 0 00-1.7-.296 17.29 17.29 0 00-3.358 1.82C3.898 38.176.315 44.901.002 51.956c-.02.469.153.93.477 1.27.324.338.779.532 1.247.532h37.358c.304 0 .603-.083.864-.234.72.147 1.463.227 2.222.234 6.5.058 11.937-5.383 11.882-11.882-.027-3.161-1.301-6.124-3.588-8.343zm-33.578-17.61h7.041c.626.763 2.361 2.506 5.621 3.24-.296 4.931-4.159 8.713-9.045 8.739h-.066a9.103 9.103 0 01-6.483-2.694c-1.605-1.613-2.547-3.74-2.689-6.044 3.26-.735 4.996-2.478 5.621-3.241zm1.165 13.38a15.31 15.31 0 004.711 0v5.098a14.698 14.698 0 01-4.711-.014v-5.085zm-4.746 4.75a.054.054 0 01.054.008c.575.514 1.673 1.258 3.534 1.707.11.057.234.09.367.09l.034-.001c.89.183 1.936.3 3.164.3 1.227 0 2.268-.118 3.148-.301a.783.783 0 00.23-.05c1.901-.436 3.01-1.183 3.582-1.696.037-.033.085-.044.122-.028.771.331 1.523.718 2.244 1.156-.556.467-1.162.874-1.796 1.227-1.757.977-3.745 1.537-5.744 1.714-2.072.184-4.183.041-6.192-.51a14.292 14.292 0 01-3.085-1.24 12.016 12.016 0 01-1.878-1.263c.721-.437 1.463-.81 2.216-1.113zM1.726 52.177a.14.14 0 01-.104-.044.14.14 0 01-.04-.105c.281-6.342 3.386-12.388 8.15-15.944.464.415.965.79 1.486 1.132a15.291 15.291 0 003.418 1.665c1.232.423 2.508.7 3.802.842 1.29.142 2.598.154 3.89.039a17.148 17.148 0 003.827-.769 14.54 14.54 0 003.45-1.645c.237-.155.468-.318.693-.49.294-.222.578-.457.849-.708.211.156.42.316.624.48a11.723 11.723 0 00-1.277 5.452c.036 4.292 2.416 8.066 5.911 10.095H1.726z"/><path d="M40 48.49l-4.923-4.923 1.846-1.846 3.076 3.076 7.383-7.383 1.847 1.846-9.23 9.23zm-3.077-5.538l-.616.615L40 47.259l7.998-8-.615-.614L40 46.029l-3.076-3.077z"/></g><defs><clipPath id="clip0"><path fill="#fff" d="M0 0h54v54H0z"/></clipPath></defs></svg>