<svg width="54" height="54" fill="none" xmlns="http://www.w3.org/2000/svg"><g clip-path="url(#clip0)" fill="#01B1B3"><path d="M33.228 38.147h-2.96a.791.791 0 000 1.582h2.96a.791.791 0 000-1.582z"/><path d="M50.651 29.678l-4.307-1.661-2.196-2.196a.787.787 0 00-.509-.23v-1.747a8.157 8.157 0 002.07-4.076c.184.009.37-.006.554-.044 1.053-.215 1.817-1.192 1.817-2.322v-.576a2.37 2.37 0 00-.697-1.683c.699-3.799.123-6.895-1.671-8.967-1.736-2.004-4.532-2.962-8.087-2.77-3.283.178-5.403 1.689-6.075 2.241a4.167 4.167 0 00-1.628.553c-.878.528-1.926 1.635-1.926 3.917 0 1.99.319 3.652.549 4.594-.772.377-1.289 1.192-1.289 2.123v.568c0 1.13.764 2.107 1.817 2.322.183.038.37.052.555.044a8.158 8.158 0 002.069 4.076v1.747a.787.787 0 00-.509.23l-2.196 2.196-4.307 1.661c-.373.144-.729.33-1.058.554a.791.791 0 00.889 1.309 3.66 3.66 0 01.738-.387l3.998-1.542 3.056 4.585a2.263 2.263 0 003.005.717l-.655 14.878a.791.791 0 101.58.07l.609-13.81h1.642l.609 13.81a.79.79 0 101.58-.07l-.655-14.878a2.258 2.258 0 001.34.283 2.263 2.263 0 001.665-1l3.056-4.585 3.998 1.542a3.64 3.64 0 011.423.992L48.77 34.88a5.197 5.197 0 00-1.532 3.699v11.247a.79.79 0 101.582 0V38.58c0-.975.38-1.891 1.069-2.58l2.4-2.4c.096.353.141.725.126 1.105l-.613 15.09a.791.791 0 001.581.064l.613-15.09a5.23 5.23 0 00-3.345-5.09zM31.176 19.442c-.14-.76-.843-1.311-1.602-1.255a.678.678 0 01-.184-.013c-.314-.064-.552-.396-.552-.772v-.568c0-.367.246-.697.558-.752a.688.688 0 01.677.26 1.11 1.11 0 001.517.237c.494-.35.93-.776 1.297-1.268a.791.791 0 00-1.27-.944 4.195 4.195 0 01-.616.666 2.263 2.263 0 00-.858-.458 18.195 18.195 0 01-.565-4.459c0-1.211.374-2.062 1.11-2.53.575-.364 1.183-.379 1.183-.379a.8.8 0 00.546-.219c.019-.018 1.963-1.822 5.294-2.002 3.048-.165 5.401.605 6.805 2.226 1.415 1.633 1.886 4.141 1.375 7.28a3.428 3.428 0 00-.675.048l-.743-1.785a.792.792 0 00-.93-.461c-.074.019-7.38 1.87-10.442-1.943a.791.791 0 10-1.233.991c3.127 3.894 9.334 3.047 11.4 2.634l.574 1.38a1.3 1.3 0 001.503.77c.255-.06.5-.061.592-.043.32.064.56.383.56.742v.577c0 .376-.236.708-.551.772a.67.67 0 01-.184.013c-.759-.056-1.462.495-1.602 1.255a6.6 6.6 0 01-6.492 5.407 6.599 6.599 0 01-6.492-5.407zm3.509 13.983a.68.68 0 01-.555.198.679.679 0 01-.506-.303l-3.079-4.62 1.239-1.238 4.727 4.136-1.826 1.826zm2.232 1.045l.047-1.087.704-.704.703.703.048 1.088h-1.502zm.751-3.96l-4.39-3.841v-1.514a8.162 8.162 0 004.39 1.276 8.161 8.161 0 004.39-1.276v1.514l-4.39 3.84zm4.044 2.81a.679.679 0 01-.506.303.679.679 0 01-.555-.198l-1.826-1.826 4.727-4.136 1.239 1.238-3.08 4.619z"/><path d="M25.085 33.824l-3.862-1.686-2.112-2.111a.787.787 0 00-.508-.23v-1.244a8.17 8.17 0 003.55-5.319c.207.01.417-.01.624-.06 1.012-.239 1.746-1.209 1.746-2.306v-.577c0-.801-.397-1.522-1.013-1.945a8.944 8.944 0 00.273-2.191c0-3.277-1.771-6.164-4.441-7.821-.029-2.735-2.363-4.952-5.23-4.952-2.867 0-5.202 2.217-5.23 4.952-2.67 1.657-4.442 4.544-4.442 7.82 0 .738.092 1.47.272 2.186A2.364 2.364 0 003.7 20.3v.568c0 1.097.735 2.067 1.747 2.306.207.05.416.07.624.06a8.17 8.17 0 003.55 5.319v1.244a.787.787 0 00-.509.23l-2.111 2.111-3.863 1.686A5.264 5.264 0 00.005 38.84l.467 11.02a.791.791 0 101.58-.066l-.467-11.021c-.03-.71.155-1.4.502-1.992l2.076 2.491a4.398 4.398 0 011.017 2.81v7.745a.791.791 0 001.582 0v-7.745a5.983 5.983 0 00-1.384-3.823l-2.207-2.648c.188-.13.387-.244.6-.337l3.366-1.47 2.38 3.861a1.529 1.529 0 002.297.362l1.507-1.286v13.086a.791.791 0 001.582 0V36.741l1.507 1.286a1.53 1.53 0 002.298-.361l2.378-3.861 3.367 1.469c.213.093.412.207.6.337l-2.207 2.648a5.983 5.983 0 00-1.384 3.823v7.745a.791.791 0 001.582 0v-7.745c0-1.025.36-2.023 1.017-2.81l2.076-2.491c.347.593.532 1.282.502 1.992l-.467 11.02a.791.791 0 001.58.068l.467-11.021a5.265 5.265 0 00-3.134-5.016zM14.112 4.964c1.683 0 3.103 1.073 3.522 2.528a9.96 9.96 0 00-3.522-.639 9.96 9.96 0 00-3.523.639c.42-1.455 1.84-2.528 3.523-2.528zM7.62 22.908c-.14-.76-.844-1.312-1.602-1.255a.684.684 0 01-.207-.018c-.301-.072-.529-.401-.529-.767V20.3c0-.367.245-.697.558-.752a.687.687 0 01.677.259c.145.19.34.325.56.392.324.097.682.04.956-.154a5.738 5.738 0 001.28-1.246.79.79 0 10-1.265-.95c-.179.24-.381.456-.603.65a2.267 2.267 0 00-1.194-.526 7.366 7.366 0 01-.229-1.818c0-4.257 3.63-7.72 8.09-7.72s8.09 3.463 8.09 7.72c0 .612-.078 1.22-.229 1.814-.208.017-.42.051-.615.102l-.595-.49a1.519 1.519 0 00-1.056-.345c-1.162.069-7.117.226-10.172-3.43a.791.791 0 00-1.214 1.014c1.507 1.803 3.717 3.023 6.569 3.624a19.41 19.41 0 004.884.373l.928.762a.79.79 0 00.9.074c.133-.073.583-.143.779-.104.32.064.56.383.56.742v.577c0 .366-.227.696-.528.767a.677.677 0 01-.207.017c-.758-.055-1.462.496-1.602 1.256a6.599 6.599 0 01-6.492 5.407 6.6 6.6 0 01-6.492-5.407zm3.212 13.877l-2.38-3.862 1.22-1.219 3.275 3.276-2.115 1.805zm3.28-2.878l-2.91-2.909v-1.636a8.165 8.165 0 005.82 0v1.636l-2.91 2.91zm3.28 2.878l-2.115-1.805 3.275-3.275 1.219 1.218-2.38 3.862z"/><path d="M11.152 41.636h-2.22a.791.791 0 000 1.582h2.22a.791.791 0 000-1.582z"/></g><defs><clipPath id="clip0"><path fill="#fff" d="M0 0h54v54H0z"/></clipPath></defs></svg>