<svg width="54" height="54" fill="none" xmlns="http://www.w3.org/2000/svg"><path d="M12.783 49.17a1.077 1.077 0 00-.289-.54 1.072 1.072 0 00-.54-.288 1.044 1.044 0 00-.79.157 1.01 1.01 0 00-.292.29 1.033 1.033 0 00-.157.38 1.04 1.04 0 00.288.952 1.063 1.063 0 00.952.288 1.043 1.043 0 00.54-.288 1.081 1.081 0 00.228-.343 1.077 1.077 0 00.08-.403c0-.068-.006-.138-.02-.206z" fill="#01B1B3"/><path d="M50.245 18.691h-1.372V7.124a4.07 4.07 0 00-4.065-4.065H30.294V1.055C30.294.472 29.822 0 29.24 0h-4.477c-.583 0-1.055.472-1.055 1.055v2.004H9.193a4.07 4.07 0 00-4.065 4.065V18.69H3.755c-.583 0-1.055.472-1.055 1.055v10.179c0 .582.472 1.055 1.055 1.055h6.16c.582 0 1.054-.473 1.054-1.055V8.899h12.738v.949h-2.054a3.121 3.121 0 00-3.117 3.118V25.37a3.121 3.121 0 003.117 3.117h2.054v1.258h-5.53c-.582 0-1.054.473-1.054 1.055v3.813c0 .583.472 1.055 1.054 1.055h5.53v9.082H7.572a2.85 2.85 0 00-2.847 2.847v5.347c0 .583.472 1.055 1.054 1.055h42.443c.582 0 1.055-.472 1.055-1.055v-5.347a2.85 2.85 0 00-2.848-2.847H30.294v-9.082h5.53c.582 0 1.055-.472 1.055-1.055V30.8c0-.582-.473-1.055-1.055-1.055h-5.53v-1.258h2.054a3.121 3.121 0 003.118-3.117V12.966a3.121 3.121 0 00-3.118-3.118h-2.054v-.95h12.738v21.027c0 .582.472 1.055 1.055 1.055h6.158c.583 0 1.055-.473 1.055-1.055v-10.18c0-.582-.472-1.054-1.054-1.054zM25.817 2.11h2.369v7.739h-2.369v-7.74zM8.86 28.87H4.81V20.8h4.05v8.07zM9.914 6.79c-.582 0-1.054.472-1.054 1.054v10.847H7.237V7.124c0-1.078.878-1.955 1.956-1.955h14.514v1.62H9.914zM46.43 46.86a.74.74 0 01.738.738v.723H15.8a1.055 1.055 0 000 2.109h31.367v1.46H6.834v-4.292a.74.74 0 01.738-.738H46.43zm-20.613-2.11v-9.08h2.369v9.082h-2.369zm8.953-12.894v1.703H19.232v-1.703H34.77zm-8.953-2.11v-1.258h2.369v1.258h-2.369zm6.532-17.789a1.01 1.01 0 011.008 1.009V25.37a1.01 1.01 0 01-1.008 1.008H21.653a1.01 1.01 0 01-1.008-1.008V12.966a1.01 1.01 0 011.008-1.009h10.695zM44.087 6.79H30.294V5.169h14.514c1.078 0 1.956.877 1.956 1.955V18.69h-1.623V7.844c0-.582-.472-1.054-1.054-1.054zm5.104 22.08h-4.05V20.8h4.05v8.07z" fill="#01B1B3"/></svg>