<svg width="40" height="40" fill="none" xmlns="http://www.w3.org/2000/svg"><g clip-path="url(#clip0)"><path d="M35.992 17.594c-2.205 0-4 1.794-4 4v4.405a5.339 5.339 0 00-2.008-.178V19.45h.4a.782.782 0 00.782-.783v-4.562a.782.782 0 00-.782-.782h-4.499l1.077-6.733a.79.79 0 00-.103-.504c0-.009.003-.017.003-.026 0-2.88-6.73-4.388-13.379-4.388C6.835 1.672.105 3.179.105 6.06l.002.009a.763.763 0 00-.097.504L4.82 35.19c-.001.015-.009.03-.009.043 0 2.444 5.449 3.096 8.672 3.096 3.042 0 7.027-.541 8.275-2.06.003-.004.006-.004.01-.007v-.003c.004 0 .004 0 .004-.003.007-.006.007-.014.013-.02.055-.07.09-.15.13-.224h7.289c.131 0 .246-.04.357-.098.315.06.639.098.969.098a5.094 5.094 0 003.092-1.06 3.969 3.969 0 002.377.797A4.005 4.005 0 0040 31.75V21.59a4.014 4.014 0 00-4.008-3.996zm0 1.564a2.44 2.44 0 012.438 2.436v4.13h-4.87v-4.13a2.436 2.436 0 012.432-2.436zm-2.915 9.197a3.582 3.582 0 01.449 4.45l-4.89-4.973a3.552 3.552 0 011.887-.546c.97.002 1.877.377 2.554 1.07zm-4.657-6.758h-8.228a.783.783 0 000 1.564h8.228v1.555h-6.042a.783.783 0 000 1.563h5.914a4.822 4.822 0 00-1.373.92 5.36 5.36 0 00-.532.635h-4.01a.783.783 0 000 1.564h3.242a5.09 5.09 0 00-.235 1.427c0 .044.012.085.013.13h-3.02a.782.782 0 000 1.564h3.295a5.074 5.074 0 001.164 1.929H16.125V19.45h12.294v2.147zm1.185-3.712H14.944v-2.998h14.661v2.998zM13.481 3.235c7.647 0 11.816 1.866 11.816 2.825 0 .959-4.17 2.824-11.816 2.824-7.644 0-11.814-1.865-11.814-2.824.002-.959 4.171-2.824 11.814-2.824zm-7.103 32c.005-.057.02-.115.006-.176L1.897 8.369c2.443 1.37 7.032 2.08 11.586 2.08 4.568 0 9.177-.712 11.614-2.093l-.795 4.967H14.16c-.43 0-.781.35-.781.782v4.562c0 .431.351.782.781.782h.4v15.778c0 .434.353.782.783.782h3.84c-1.214.412-3.157.754-5.701.756-4.63.001-6.952-1.101-7.104-1.53zm21.596-1.858a3.543 3.543 0 01-1.026-2.537 3.6 3.6 0 01.577-1.912l4.884 4.966c-1.38.829-3.283.655-4.435-.517zm8.018.808a2.42 2.42 0 01-1.269-.365 5.146 5.146 0 00-.511-6.535h4.215v4.465a2.434 2.434 0 01-2.435 2.435z" fill="#28868A"/></g><defs><clipPath id="clip0"><path fill="#fff" d="M0 0h40v40H0z"/></clipPath></defs></svg>