<svg width="54" height="54" fill="none" xmlns="http://www.w3.org/2000/svg"><g clip-path="url(#clip0)" fill="#01B1B3"><path d="M9.07 48.727c0-.583-.472-1.055-1.054-1.055h-.001a1.054 1.054 0 101.055 1.055zm35.86 0a1.055 1.055 0 101.055-1.055c-.583 0-1.055.472-1.055 1.055zM31.219 11.602h-1.055v-1.055c0-1.163-.946-2.11-2.11-2.11h-2.109c-1.163 0-2.11.947-2.11 2.11v1.055h-1.054c-1.163 0-2.11.946-2.11 2.109v2.11c0 1.162.947 2.109 2.11 2.109h1.055v1.054c0 1.163.946 2.11 2.11 2.11h2.109c1.163 0 2.11-.947 2.11-2.11V17.93h1.054c1.163 0 2.11-.947 2.11-2.11v-2.11a2.112 2.112 0 00-2.11-2.108zm0 4.218h-2.11c-.582 0-1.054.473-1.054 1.055v2.11h-2.11v-2.11c0-.582-.472-1.055-1.054-1.055h-2.11v-2.11h2.11c.582 0 1.054-.471 1.054-1.054v-2.11h2.11v2.11c0 .583.472 1.055 1.054 1.055h2.11v2.11z"/><path d="M37.547 4.219H16.453a3.168 3.168 0 00-3.164 3.164v14.765a3.168 3.168 0 003.164 3.165h21.094a3.168 3.168 0 003.164-3.165V7.383a3.168 3.168 0 00-3.164-3.164zm1.055 17.93c0 .581-.474 1.054-1.055 1.054H16.453a1.056 1.056 0 01-1.055-1.055V7.383c0-.582.474-1.055 1.055-1.055h21.094c.581 0 1.055.473 1.055 1.055v14.765z"/><path d="M48.094 38.715a3.168 3.168 0 003.164-3.164V24.258a7.34 7.34 0 00-2.075-5.12 7.352 7.352 0 00-4.253-2.186v-9.57C44.93 3.313 41.618 0 37.547 0H16.453C12.383 0 9.07 3.312 9.07 7.383v9.57c-1.6.23-3.078.978-4.228 2.16a7.338 7.338 0 00-2.1 5.145V35.55a3.168 3.168 0 003.164 3.164A3.168 3.168 0 009.07 35.55V24.258c0-.203.062-.394.166-.557a7.4 7.4 0 006.162 5.754v.076a3.168 3.168 0 00-3.164 3.164v6.54h-2.109a3.168 3.168 0 00-3.164 3.164v1.16a5.282 5.282 0 00-4.219 5.168A5.28 5.28 0 008.016 54h37.968a5.28 5.28 0 005.274-5.273 5.282 5.282 0 00-4.219-5.167v-1.161a3.168 3.168 0 00-3.164-3.164h-2.11v-6.54a3.168 3.168 0 00-3.163-3.164v-.076a7.4 7.4 0 006.162-5.754c.104.163.166.354.166.557V35.55a3.168 3.168 0 003.164 3.164zm1.054-13.403v4.22H47.04v-4.22h2.11zm-1.054 11.294a1.056 1.056 0 01-1.055-1.055v-3.91h2.11v3.91c0 .582-.474 1.055-1.055 1.055zm.944-13.403h-2.18a3.18 3.18 0 00-1.928-1.928v-2.181a5.352 5.352 0 014.108 4.11zM6.961 29.531H4.85v-4.219h2.11v4.22zm-1.055 7.075a1.056 1.056 0 01-1.054-1.055v-3.91H6.96v3.91c0 .582-.473 1.055-1.055 1.055zm1.236-13.403H4.96a5.335 5.335 0 014.11-4.11v2.182a3.18 3.18 0 00-1.928 1.928zm7.202 23.434c.582 0 1.054-.472 1.054-1.055v-.02h4.22v.02a1.055 1.055 0 102.109 0v-.02h4.218v.02a1.055 1.055 0 002.11 0v-.02h4.218v.02a1.055 1.055 0 002.11 0v-.02H38.6v.02a1.055 1.055 0 002.11 0v-.02h1.058a5.25 5.25 0 00-.952 2.11H13.183a5.251 5.251 0 00-.951-2.11h1.057v.02c0 .583.472 1.055 1.055 1.055zm25.312 4.18c-.582 0-1.054.472-1.054 1.054v.02h-4.22v-.02a1.055 1.055 0 00-2.108 0v.02h-4.22v-.02a1.055 1.055 0 10-2.109 0v.02h-4.218v-.02a1.055 1.055 0 00-2.11 0v.02H15.4v-.02a1.055 1.055 0 00-2.11 0v.02h-1.057a5.25 5.25 0 00.95-2.11h27.635c.159.78.49 1.496.952 2.11h-1.06v-.02c0-.582-.472-1.055-1.055-1.055zm-34.804-2.09a3.168 3.168 0 013.164-3.164 3.168 3.168 0 013.164 3.164 3.168 3.168 0 01-3.164 3.164 3.168 3.168 0 01-3.164-3.164zm44.296 0a3.168 3.168 0 01-3.164 3.164 3.168 3.168 0 01-3.164-3.164 3.168 3.168 0 013.164-3.164 3.168 3.168 0 013.164 3.164zm-4.218-6.328v1.054H9.07v-1.055c0-.581.473-1.054 1.055-1.054h33.75c.581 0 1.055.473 1.055 1.054zm-5.274-9.704v6.54H14.344v-6.54c0-.581.473-1.054 1.054-1.054h.182a3.17 3.17 0 002.982 2.109h2.979l.28.563c.266.54.762 1.546 1.966 1.546h6.43c1.204 0 1.699-1.006 1.965-1.546l.278-.557 2.977-.006a3.17 3.17 0 002.983-2.11h.182c.581 0 1.054.474 1.054 1.055zm-2.11-5.273h-5.8a1.055 1.055 0 000 2.11h4.746v1.054c0 .581-.473 1.055-1.057 1.055l-3.63.007c-.398 0-.762.226-.94.583l-.576 1.15a4.71 4.71 0 01-.194.369h-6.186a4.69 4.69 0 01-.195-.368l-.578-1.158a1.055 1.055 0 00-.944-.583h-3.63a1.056 1.056 0 01-1.054-1.055V29.53h4.746a1.055 1.055 0 000-2.11h-5.8a5.28 5.28 0 01-5.274-5.273V7.383a5.28 5.28 0 015.273-5.274h21.094a5.28 5.28 0 015.273 5.274v14.765a5.28 5.28 0 01-5.273 5.274z"/><path d="M27 27.422a1.054 1.054 0 10-.002 2.109A1.054 1.054 0 0027 27.42z"/></g><defs><clipPath id="clip0"><path fill="#fff" d="M0 0h54v54H0z"/></clipPath></defs></svg>