<svg width="54" height="54" fill="none" xmlns="http://www.w3.org/2000/svg"><g clip-path="url(#clip0)" fill="#01B1B3"><path d="M13.39 40.145a2.753 2.753 0 002.75 2.75 2.753 2.753 0 002.75-2.75 2.753 2.753 0 00-2.75-2.75 2.753 2.753 0 00-2.75 2.75zm3.918 0a1.17 1.17 0 01-1.168 1.168 1.17 1.17 0 01-1.168-1.168 1.17 1.17 0 011.168-1.168 1.17 1.17 0 011.168 1.169zm30.667-17.008c1.755-1 1.757-3.53 0-4.532a1.022 1.022 0 01-.48-1.164c.532-1.946-1.251-3.738-3.207-3.203a1.025 1.025 0 01-1.161-.481c-1-1.755-3.53-1.757-4.532 0-.232.407-.71.605-1.164.48-1.898-.52-3.739 1.189-3.203 3.207.124.452-.074.93-.481 1.162-1.755 1-1.757 3.53 0 4.53.407.233.605.71.48 1.165-.532 1.946 1.251 3.738 3.207 3.203.452-.124.93.074 1.161.481 1 1.756 3.53 1.757 4.532 0 .231-.407.71-.605 1.164-.48 1.943.532 3.74-1.25 3.203-3.206-.124-.453.074-.93.481-1.162zm-.783-1.375a2.604 2.604 0 00-1.223 2.957c.209.764-.49 1.47-1.263 1.26a2.606 2.606 0 00-2.954 1.223 1.025 1.025 0 01-1.782 0 2.607 2.607 0 00-2.957-1.223c-.764.21-1.47-.49-1.259-1.263a2.607 2.607 0 00-1.224-2.954 1.025 1.025 0 010-1.782 2.603 2.603 0 001.227-2.944 1.025 1.025 0 011.259-1.272 2.607 2.607 0 002.954-1.224 1.025 1.025 0 011.782 0 2.608 2.608 0 002.957 1.224 1.025 1.025 0 011.259 1.262 2.607 2.607 0 001.224 2.954c.69.393.691 1.388 0 1.782z"/><path d="M50.93 13.03a.791.791 0 00-1.247.973 11.067 11.067 0 012.358 6.868c0 6.164-5.015 11.18-11.18 11.18-6.026 0-10.972-4.817-11.172-10.802 2.294-2.296 2.21-2.201 2.339-2.358.026-.048.593-.651.593-1.668 0-1.42-1.027-2.055-1.218-2.312a11.2 11.2 0 019.459-5.22c2.443 0 4.765.775 6.712 2.24a.79.79 0 10.951-1.264 12.653 12.653 0 00-7.663-2.557c-4.27 0-8.243 2.145-10.601 5.66l-.556-.556a2.647 2.647 0 00-3.09-.474l-9.82-9.819a4.24 4.24 0 00-5.375-.506L9.863.858a2.926 2.926 0 00-4.14 0L3.63 2.95a2.926 2.926 0 000 4.14l1.557 1.557a4.233 4.233 0 00-.09 4.625 18.648 18.648 0 00-4.72 12.419c0 2.54.504 5.007 1.498 7.332a.791.791 0 101.454-.622 16.975 16.975 0 01-1.37-6.71c0-4.142 1.48-8.094 4.186-11.217l4.12 4.12a11.304 11.304 0 00-2.501 7.096 11.36 11.36 0 004.671 9.162C11.07 35.916 10.76 36.922 9 39.528a17.17 17.17 0 01-4.163-4.345.79.79 0 10-1.315.88 18.746 18.746 0 004.624 4.798L5.47 45.036a4.755 4.755 0 00-4.302 4.727v1.752A2.488 2.488 0 003.653 54h36.252a3.154 3.154 0 003.15-3.15 5.841 5.841 0 00-5.835-5.835H22.903v-2.858h11.743a2.378 2.378 0 002.376-2.376 4.867 4.867 0 00-4.862-4.861H20.475a6.453 6.453 0 00-4.057-1.432c-.86 0-1.693.168-2.46.482a9.777 9.777 0 01-4.612-8.28c0-2.17.722-4.26 2.047-5.968l4.12 4.12a2.641 2.641 0 00.473 3.09l2.142 2.142a2.64 2.64 0 003.736 0l6.368-6.368a12.667 12.667 0 003.626 7.208 12.68 12.68 0 009.004 3.718c7.036 0 12.761-5.724 12.761-12.761 0-2.87-.931-5.582-2.693-7.84zm-9.457 37.82a1.57 1.57 0 01-1.568 1.568H3.653a.904.904 0 01-.903-.903v-1.752a3.17 3.17 0 013.166-3.166H37.22a4.258 4.258 0 014.253 4.253zM32.16 36.502a3.283 3.283 0 013.28 3.28.794.794 0 01-.794.793H22.903c-.04-.271.24-2.105-1.01-4.073H32.16zm-10.84 3.436v5.077H7.364c5.285-8.245 5.015-7.858 5.333-8.232a4.889 4.889 0 013.722-1.713 4.906 4.906 0 014.902 4.868zM15.676 4.04l9.734 9.733-5.91 5.91-2.954 2.954C6.074 12.166 6.814 12.91 6.71 12.796a2.65 2.65 0 01.102-3.642l5.114-5.114a2.655 2.655 0 013.75 0zM4.75 4.069l2.092-2.092a1.347 1.347 0 011.903 0l1.504 1.504-3.995 3.995L4.75 5.972a1.347 1.347 0 010-1.903zm15.996 23.886a1.06 1.06 0 01-1.499 0l-2.141-2.14a1.06 1.06 0 010-1.5l3.328-3.327 6.655-6.656a1.06 1.06 0 011.499 0l2.14 2.142a1.061 1.061 0 010 1.499l-9.982 9.982z"/></g><defs><clipPath id="clip0"><path fill="#fff" d="M0 0h54v54H0z"/></clipPath></defs></svg>