<svg width="54" height="54" fill="none" xmlns="http://www.w3.org/2000/svg"><g clip-path="url(#clip0)" fill="#01B1B3"><path d="M18 31.5a1.8 1.8 0 011.8 1.8.9.9 0 001.8 0 3.6 3.6 0 00-2.7-3.471V28.8a.9.9 0 00-1.8 0v1.027A3.592 3.592 0 0018 36.9a1.8 1.8 0 11-1.8 1.8.9.9 0 00-1.8 0 3.6 3.6 0 002.7 3.472V43.2a.9.9 0 001.8 0v-1.025A3.592 3.592 0 0018 35.1a1.8 1.8 0 010-3.6zm2.7-9h-5.4a.9.9 0 000 1.8h5.4a.9.9 0 000-1.8zm0 25.2h-5.4a.9.9 0 000 1.8h5.4a.9.9 0 100-1.8z"/><path d="M49.314 34.651L36.1 11.769a15.157 15.157 0 002.144-2.671c1.5-2.43 1.768-4.737.754-6.493-2.018-3.497-8.393-3.469-14.512.063a22.275 22.275 0 00-2.34 1.578l-.726-.825A4.567 4.567 0 0018 1.877a4.567 4.567 0 00-3.42 1.544l-9.839 11.15a4.558 4.558 0 00-1.14 3.018v28.312A8.109 8.109 0 0011.7 54h12.6a8.109 8.109 0 008.1-8.1V17.589a4.548 4.548 0 00-.72-2.445h.007a21.969 21.969 0 003.052-2.13l13.015 22.537a6.3 6.3 0 01-2.305 8.607l-10.911 6.3c-.48.274-.995.484-1.53.623a.9.9 0 00.463 1.74 8.095 8.095 0 001.962-.804l10.912-6.3a8.1 8.1 0 002.968-11.066zM30.6 45.901a6.307 6.307 0 01-6.3 6.3H11.7a6.307 6.307 0 01-6.3-6.3V17.589c0-.673.246-1.323.691-1.828L15.93 4.613a2.76 2.76 0 014.14 0l8.777 9.947a14.897 14.897 0 01-6.417 1.424c.04-.225.064-.454.07-.683a4.505 4.505 0 00-4.5-4.5.879.879 0 00-.289.059.89.89 0 00-.976.687 5.03 5.03 0 00.44 3.654 4.876 4.876 0 002.625 2.104 2.688 2.688 0 01-4.5-2.004.9.9 0 00-1.8 0 4.494 4.494 0 008.274 2.436c.354.037.71.057 1.066.058a17.356 17.356 0 007.228-1.82c.343.469.529 1.034.532 1.614v28.312zm-9.9-30.6a2.678 2.678 0 01-.04.394 3.271 3.271 0 01-1.926-1.394 2.887 2.887 0 01-.343-1.66 2.7 2.7 0 012.309 2.66zm10.086-1.724c-.09.052-.18.097-.27.148l-7.173-8.13c.653-.495 1.335-.95 2.043-1.364 5.07-2.928 10.59-3.259 12.053-.72.668 1.157.41 2.809-.727 4.649a12.88 12.88 0 01-1.548 1.995l-.009-.016a4.56 4.56 0 00-2.497-2.044l-3.524-1.191a.9.9 0 00-.574 1.705l3.525 1.185a2.766 2.766 0 011.511 1.238l.23.397a19.92 19.92 0 01-3.04 2.15v-.002z"/><path d="M34.321 36.277a.9.9 0 001.23.329l6.234-3.6a.9.9 0 10-.9-1.559l-6.235 3.6a.9.9 0 00-.329 1.23zm1.139 5.573a.9.9 0 001.23.33l7.794-4.5a.9.9 0 10-.9-1.559l-7.794 4.5a.9.9 0 00-.33 1.23zm.51-10.82a.9.9 0 00.45-.121l3.117-1.8a.9.9 0 10-.9-1.559l-3.118 1.8a.9.9 0 00.45 1.68z"/></g><defs><clipPath id="clip0"><path fill="#fff" d="M0 0h54v54H0z"/></clipPath></defs></svg>