<svg width="40" height="40" fill="none" xmlns="http://www.w3.org/2000/svg"><path d="M36.875 1.25h-12.5A1.875 1.875 0 0022.5 3.125v.637a6.25 6.25 0 100 9.976v5.637a1.875 1.875 0 001.875 1.875h1.875v2.5a.624.624 0 00.625.625h.625V25a1.875 1.875 0 001.875 1.875h1.875a.624.624 0 01.625.625v1.25H14.523l-2.182-1.09-1.157-2.313a.625.625 0 00-.559-.347h-2.5a1.875 1.875 0 00-1.875 1.875v.625H3.058a1.726 1.726 0 00-1.808 1.875c.014.456.196.892.511 1.222a1.85 1.85 0 00-.023 2.528 1.857 1.857 0 00.387 2.83 1.86 1.86 0 00-.25.92A1.875 1.875 0 003.75 38.75h8.125a.624.624 0 00.28-.063l2.368-1.187h23.602a.624.624 0 00.625-.625v-7.5a.624.624 0 00-.625-.625h-5V27.5a1.875 1.875 0 00-1.875-1.875h-1.875A.624.624 0 0128.75 25v-.625h.625A.624.624 0 0030 23.75v-2.5h1.25v1.25a.625.625 0 00.625.625h2.5A.624.624 0 0035 22.5v-1.25h1.875a1.875 1.875 0 001.875-1.875V3.125a1.875 1.875 0 00-1.875-1.875zM30.625 30h1.25v1.875a.624.624 0 01-.625.625h-.625V30zm-3.75 3.75h-1.727l-.773-.386v-.478l.773-.386h1.727v1.25zm0-2.5H25a.624.624 0 00-.28.063l-1.25.625a.625.625 0 00-.345.562h-1.25v-.625a.624.624 0 00-.625-.625h-2.5a.624.624 0 00-.625.625v2.5a.624.624 0 00.625.625h2.5a.624.624 0 00.625-.625v-.625h1.25a.625.625 0 00.346.563l1.25.624A.624.624 0 0025 35h1.875v1.25h-12.5a.624.624 0 00-.28.063L11.728 37.5H3.75a.625.625 0 110-1.25h4.375V35h-5a.625.625 0 110-1.25H8.75V32.5H3.125a.625.625 0 010-1.25h6.25V30h-6.25a.744.744 0 01-.625-.625c0-.52.214-.625.558-.625H8.75V27.5H7.5v-.625a.625.625 0 01.625-.625h2.114l1.077 2.154c.06.122.158.22.28.28l2.5 1.25a.626.626 0 00.279.066h12.5v1.25zm-6.25 1.25v1.25h-1.25V32.5h1.25zm8.75 3.75h-1.25V30h1.25v6.25zm3.75-4.375V30H37.5v6.25h-6.875v-2.5h.625a1.875 1.875 0 001.875-1.875zM18.75 13.75a5 5 0 110-10 5 5 0 010 10zm18.75 5.625a.624.624 0 01-.625.625h-2.5a.624.624 0 00-.625.625v1.25H32.5v-1.25a.624.624 0 00-.625-.625h-2.5a.624.624 0 00-.625.625v2.5H27.5v-2.5a.624.624 0 00-.625-.625h-2.5a.624.624 0 01-.625-.625v-6.891a6.201 6.201 0 000-7.468V3.125a.625.625 0 01.625-.625h12.5a.625.625 0 01.625.625v16.25z" fill="#28868A"/><path d="M25.625 18.75h10a.625.625 0 00.625-.625V4.375a.625.625 0 00-.625-.625h-10a.625.625 0 00-.625.625v13.75a.625.625 0 00.625.625zM26.25 5H35v1.32a3.26 3.26 0 00-.901.312 2.075 2.075 0 01-1.95 0 3.323 3.323 0 00-3.053 0 2.07 2.07 0 01-1.947 0 3.284 3.284 0 00-.899-.312V5zm0 2.6c.12.044.235.095.348.153a3.312 3.312 0 003.05 0 2.076 2.076 0 011.948 0 3.323 3.323 0 003.053 0c.114-.058.23-.11.351-.153v9.9h-8.75V7.6zm-19.147.013a1.875 1.875 0 00-2.652 0l-2.652 2.651a1.875 1.875 0 002.652 2.652l.884.884-1.326 1.325a.625.625 0 000 .884l1.768 1.767a.625.625 0 00.884 0l.442-.442 4.861 4.862c.075.06.157.111.244.151l2.511.84.781.777a1.852 1.852 0 002.129.361l3.616 3.617.884-.884-3.617-3.617a1.874 1.874 0 00-.36-2.125l-.78-.78-.838-2.512a1.118 1.118 0 00-.15-.245l-4.861-4.86.441-.443a.625.625 0 000-.883l-1.768-1.768a.625.625 0 00-.883 0l-1.326 1.326-.884-.884a1.875 1.875 0 000-2.654zm-3.536 4.419a.625.625 0 01-.884-.883L5.334 8.5a.625.625 0 11.884.884l-2.651 2.648zm1.767 0l.885-.884.883.884-.883.884-.885-.884zm11.491 9.723l.442.442a.624.624 0 11-.884.884l-.442-.442.884-.884zm-.716-1.053l-1.22 1.221-1.326-.441 2.105-2.107.441 1.327zm-4.587-6.018l-.884.884.884.883.884-.883.884.883-.884.884.884.884.884-.884.883.884-2.65 2.652-4.42-4.42 2.651-2.652.884.885zm-1.768-3.536l.884.884-4.42 4.42-.884-.884 4.42-4.42zm12.121-4.272h-1.25v-1.25A.625.625 0 0020 5h-2.5a.625.625 0 00-.625.625v1.25h-1.25A.625.625 0 0015 7.5V10a.625.625 0 00.625.625h1.25v1.25a.625.625 0 00.625.625H20a.625.625 0 00.625-.625v-1.25h1.25A.625.625 0 0022.5 10V7.5a.625.625 0 00-.625-.625zm-.625 2.5H20a.625.625 0 00-.625.625v1.25h-1.25V10a.625.625 0 00-.625-.625h-1.25v-1.25h1.25a.625.625 0 00.625-.625V6.25h1.25V7.5a.625.625 0 00.625.625h1.25v1.25z" fill="#28868A"/><path d="M33.75 15H32.5v1.25h1.25V15zm-2.5 0H30v1.25h1.25V15z" fill="#28868A"/></svg>