<svg width="40" height="40" fill="none" xmlns="http://www.w3.org/2000/svg"><g clip-path="url(#clip0)" fill="#28868A"><path d="M37.263 29.085l-4.881-14.789a2.346 2.346 0 00-.027-2.25l1.884-3.895.007-.017.005-.01 2.092-4.77a2.33 2.33 0 00.094-1.795A2.328 2.328 0 0035.219.217a2.354 2.354 0 00-3.108 1.12l-2.77 6.153a.781.781 0 00.712 1.102h2.236l-1.162 2.404a2.331 2.331 0 00-.815-.147H13.943a2.347 2.347 0 00-2.343 2.346 2.347 2.347 0 002.343 2.345H27.73l1.007 2.978a.78.78 0 101.48-.5v-.001l-.788-2.477h.883c.29 0 .572-.053.835-.153l4.633 14.189a.78.78 0 01.04.248c0 .028-.001.102-.005.172a4.38 4.38 0 00-2.167-1.683l-1.179-3.635a.781.781 0 00-1.48.501l.974 2.883-.092.003L5.906 29.82a3.538 3.538 0 00-3.289 3.522 3.532 3.532 0 003.527 3.53h1.55v2.366c0 .42.35.762.782.762h23.433a.77.77 0 00.78-.762V36.84a4.412 4.412 0 003.883-4.377c0-.27-.026-.54-.075-.803a2.34 2.34 0 00.886-1.836c0-.25-.04-.5-.12-.739zM33.53 1.99a.785.785 0 011.028-.357c.191.09.336.248.406.448a.78.78 0 01-.047.633l-1.892 4.315h-1.763L33.53 1.99zM13.162 13.195c0-.432.35-.783.781-.783h16.369a.783.783 0 010 1.565H13.943a.783.783 0 01-.78-.782zM9.257 38.477v-1.605h21.87v1.605H9.257zm22.911-3.168H6.144a1.968 1.968 0 01-.133-3.93l25.966-1.755a2.808 2.808 0 012.13.759 2.847 2.847 0 01-1.939 4.926z"/><path d="M30.603 22.38a.785.785 0 00.7-.435.78.78 0 10-.7.435zM8.464 32.68a.78.78 0 10.824.778v-.04a.784.784 0 00-.824-.737zm23.401-1.299a.777.777 0 00-.538.26.782.782 0 10.538-.26zm-3.51.196l-16.38.91a.778.778 0 00-.737.824.78.78 0 00.778.736h.045l16.38-.91a.777.777 0 00.54-.26.781.781 0 00-.626-1.3z"/></g><defs><clipPath id="clip0"><path fill="#fff" d="M0 0h40v40H0z"/></clipPath></defs></svg>